# xmcd
#
# Track frame offsets:
#	150
#	13653
#	30937
#	49107
#	67695
#	84261
#	98753
#	114731
#	134587
#	153979
#	174215
#	191019
#	204935
#
# Disc length: 3026 seconds
#
# Revision: 1
# Processed by: cddbd v1.5.2PL0 Copyright (c) Steve Scherf et al.
# Submitted via: audiograbber 1.83.01
#
DISCID=980bd00d
DTITLE=Janet Kable - Right here
DYEAR=1900
DGENRE=
TTITLE0=The real you
TTITLE1=Extra ordinary
TTITLE2=Me
TTITLE3=Right Here
TTITLE4=Big
TTITLE5=Simple
TTITLE6=Someone Else's Shoes
TTITLE7=Today's Perfomance
TTITLE8=Hold On
TTITLE9=Pray Down an Angel
TTITLE10=Rest in Me
TTITLE11=Life in the Bush
TTITLE12=God's Outback
EXTD=
EXTT0=
EXTT1=
EXTT2=
EXTT3=
EXTT4=
EXTT5=
EXTT6=
EXTT7=
EXTT8=
EXTT9=
EXTT10=
EXTT11=
EXTT12=
PLAYORDER=
